# xmcd CD database file
#
# Track frame offsets:
#	150
#	18212
#	37342
#	59905
#	79292
#	99310
#	117212
#	138290
#	166387
#	186012
#
# Disc length: 2811 seconds
#
# Revision: 0
# Processed by: cddbd v1.5.1PL2 Copyright (c) Steve Scherf et al.
# Submitted via: CDex 1.51
#
DISCID=860af90a
DTITLE=清水宏次朗 - NIGHT DIVE
DYEAR=1988
DGENRE=JPop
TTITLE0=LOVE AFFAIR
TTITLE1=MOTEL HEAVEN
TTITLE2=眠れない
TTITLE3=THIS TIME
TTITLE4=DEAR MY FRIEND
TTITLE5=CRESCENT MYSTERY
TTITLE6=NIGHT DIVE
TTITLE7=MORNING
TTITLE8=天秤座の厄日
TTITLE9=CRY
EXTD=YEAR: 1988
EXTT0=
EXTT1=
EXTT2=
EXTT3=
EXTT4=
EXTT5=
EXTT6=
EXTT7=
EXTT8=
EXTT9=
PLAYORDER=
